<svg version="1.1" id="Layer_1" xmlns="http://www.w3.org/2000/svg" xmlns:xlink="http://www.w3.org/1999/xlink" x="0px" y="0px"
	 width="100%" viewBox="0 0 1024 368" enable-background="new 0 0 1024 368" xml:space="preserve">
<path fill="#000000" opacity="1.000000" stroke="none" 
	d="
M68.183762,228.174713 
	C74.947510,222.470139 81.391487,216.932678 87.988708,211.584213 
	C90.378723,209.646591 91.430641,207.749847 91.147812,204.426651 
	C83.934204,119.665993 147.565948,50.578796 222.920853,39.579483 
	C266.242676,33.255936 305.562073,42.822334 341.132629,68.104576 
	C345.734039,71.375084 350.174561,75.013161 354.093353,79.058540 
	C357.274261,82.342255 360.487976,82.336433 364.429962,81.549782 
	C375.440826,79.352463 386.544464,78.613640 397.652344,80.760567 
	C412.815948,83.691391 418.565338,93.886139 413.401459,108.362038 
	C410.331329,116.968575 405.260742,124.406754 399.494537,131.331650 
	C381.138275,153.376678 359.263184,171.560455 336.129272,188.303467 
	C333.493073,190.211411 331.999695,192.164429 331.855072,195.580124 
	C331.007751,215.597809 324.043060,233.297226 310.752136,248.303406 
	C296.065521,264.885437 277.339661,273.744904 255.478683,276.316589 
	C239.273178,278.222992 224.044739,274.622925 209.442490,267.942810 
	C206.087540,266.408020 203.321091,266.380890 200.014114,267.929718 
	C192.374832,271.507629 184.574982,274.742676 176.185257,278.402466 
	C181.874176,284.150604 188.297134,287.655029 194.679077,291.080231 
	C240.676331,315.766907 299.148315,304.660278 332.695587,264.801636 
	C335.750671,261.171814 337.722839,261.251862 341.097717,264.306641 
	C348.997009,271.456726 357.168152,278.316650 365.414215,285.068085 
	C368.331635,287.456696 368.377930,289.204712 365.924072,291.950867 
	C340.340973,320.581390 308.877625,338.505096 270.781982,344.331207 
	C225.980103,351.182922 186.066437,339.264893 150.194077,312.420197 
	C144.069244,307.836731 138.413681,302.607147 133.227036,296.942871 
	C131.311981,294.851471 129.428085,294.318054 126.623795,295.284851 
	C106.888596,302.088989 86.671730,306.783264 65.857445,308.794067 
	C56.340858,309.713409 46.866375,309.716919 37.576782,307.268463 
	C24.173523,303.735809 19.634977,294.920715 24.385530,281.798065 
	C28.138773,271.430328 34.984394,262.988556 41.845612,254.595490 
	C49.676224,245.016556 58.789322,236.702560 68.183762,228.174713 
M337.772217,104.294975 
	C334.635376,104.672211 331.359192,104.601318 328.392059,105.524231 
	C322.978180,107.208199 319.130829,105.428482 314.783112,102.098457 
	C292.461060,85.001457 266.994385,76.884796 239.033020,79.651970 
	C201.027496,83.413162 170.850967,101.231316 150.303055,133.874924 
	C135.823502,156.877975 130.628311,182.028778 135.177185,208.947968 
	C137.526474,222.850464 142.176224,235.992416 149.398438,248.161728 
	C150.825272,250.565933 152.474136,253.174316 148.561829,254.615631 
	C137.163422,258.814880 125.720261,262.880096 113.372871,263.380554 
	C109.875999,263.522278 107.792259,262.083862 106.344292,259.012177 
	C102.290619,250.412811 98.686623,241.647385 95.985893,232.523666 
	C95.426208,230.632935 95.136856,228.611511 93.000008,226.863281 
	C84.884926,234.982712 77.049278,243.298645 72.100708,253.828812 
	C66.913368,264.867065 70.775597,272.174408 82.749245,274.827454 
	C85.376564,275.409576 87.988174,275.662750 90.661110,275.723846 
	C111.334244,276.196442 130.918671,270.564423 150.176682,264.203522 
	C200.464966,247.593414 247.121323,223.493500 290.918793,193.839874 
	C311.913788,179.624969 332.112701,164.364227 349.120880,145.345078 
	C355.245026,138.496826 360.998047,131.322906 363.335114,122.143578 
	C365.479370,113.721504 361.885651,107.727119 353.593872,105.347435 
	C348.687164,103.939240 343.697235,104.268204 337.772217,104.294975 
z"/>
<path fill="#000000" opacity="1.000000" stroke="none" 
	d="
M840.694275,224.999878 
	C840.694092,214.891785 840.694092,205.283691 840.694092,195.675613 
	C840.359985,195.565277 840.025818,195.454941 839.691711,195.344604 
	C834.546387,203.592896 829.379395,211.827789 824.262756,220.093796 
	C820.318909,226.465103 816.463379,232.891037 812.522095,239.263962 
	C808.812317,245.262695 798.014587,245.101028 794.190491,239.049759 
	C785.917114,225.957703 777.623413,212.878464 769.318237,199.806519 
	C768.624329,198.714340 767.781311,197.716919 766.885986,196.511856 
	C765.667725,198.273361 766.179138,199.958969 766.171997,201.518906 
	C766.102966,216.677521 765.913879,231.839645 766.178345,246.993469 
	C766.268188,252.141922 764.492065,253.799149 759.514221,253.390793 
	C754.880737,253.010681 750.179504,253.086426 745.531799,253.361908 
	C741.483582,253.601837 740.518188,251.992035 740.541077,248.130707 
	C740.693909,222.311676 740.562073,196.491104 740.643982,170.671402 
	C740.662476,164.851425 739.894409,159.064911 740.455444,153.204987 
	C740.789856,149.711090 742.139282,148.421539 745.427795,148.739380 
	C745.592712,148.755310 745.765625,148.764587 745.926697,148.734268 
	C758.520569,146.363800 766.733643,150.708817 772.905823,162.594574 
	C780.553223,177.321060 790.383911,190.914078 799.280457,204.991104 
	C800.512207,206.940140 801.794678,208.857101 803.214478,211.035645 
	C806.539917,208.530838 807.887512,205.053497 809.769897,202.039322 
	C819.914795,185.794861 830.009949,169.518433 839.970520,153.160660 
	C841.934021,149.936005 844.275818,148.460846 848.081848,148.720444 
	C852.061279,148.991867 856.099915,149.067642 860.064941,148.705551 
	C865.057556,148.249619 866.284119,150.420135 866.245728,155.053726 
	C866.067444,176.541214 866.169434,198.031006 866.168152,219.519974 
	C866.167603,228.848541 866.013916,238.180359 866.222107,247.504181 
	C866.315674,251.694412 865.136414,253.660751 860.582397,253.379929 
	C855.438293,253.062714 850.255859,253.211349 845.096069,253.361496 
	C841.901001,253.454453 840.616211,252.221420 840.667297,248.987045 
	C840.790894,241.159805 840.699341,233.329163 840.694275,224.999878 
z"/>
<path fill="#000000" opacity="1.000000" stroke="none" 
	d="
M992.182861,229.040268 
	C978.222717,250.928024 952.435791,257.405731 930.713379,253.924744 
	C910.333923,250.658981 895.006104,240.411026 886.923157,221.025955 
	C874.736389,191.798813 891.683411,157.812439 922.361450,149.799347 
	C940.974731,144.937546 959.247498,145.958817 975.768433,156.553040 
	C1000.005676,172.095444 1006.825684,202.963364 992.182861,229.040268 
M953.729431,230.375656 
	C970.437683,222.658371 977.353271,205.272934 970.491821,188.235550 
	C964.373352,173.042770 946.806458,165.564087 930.533020,171.224014 
	C914.639160,176.751892 906.241272,194.196259 911.324463,211.124756 
	C916.379211,227.958237 934.418518,236.411545 953.729431,230.375656 
z"/>
<path fill="#000000" opacity="1.000000" stroke="none" 
	d="
M571.311829,254.446014 
	C539.747620,257.499878 508.733459,238.490509 507.141022,202.854904 
	C506.207642,181.967331 516.800659,161.500229 539.868591,152.145432 
	C556.963318,145.212921 574.669128,144.870911 591.862000,152.308655 
	C614.601929,162.146103 625.867920,182.896408 623.246582,209.078018 
	C621.161194,229.907181 603.135376,248.578064 580.627747,253.136459 
	C577.705688,253.728271 574.717407,253.992554 571.311829,254.446014 
M583.563843,227.102570 
	C593.602356,219.778351 597.635681,209.752518 596.667542,197.578918 
	C595.319458,180.627335 580.294373,168.090439 562.825745,169.434479 
	C547.302246,170.628845 532.885437,182.979523 533.712280,202.077530 
	C534.804993,227.314728 561.180969,240.617096 583.563843,227.102570 
z"/>
<path fill="#000000" opacity="1.000000" stroke="none" 
	d="
M718.407715,161.491486 
	C716.707886,165.510757 714.953003,169.123215 713.642883,172.890320 
	C712.477234,176.242401 711.120972,176.848099 707.809937,175.089661 
	C696.618591,169.146118 684.750183,166.653717 672.103271,169.290665 
	C669.614380,169.809601 667.317749,170.703140 665.377747,172.386780 
	C660.576782,176.553421 660.919495,181.886429 666.492249,184.990997 
	C673.739685,189.028534 681.981995,189.881683 689.911987,191.694366 
	C695.430298,192.955811 700.959106,194.163071 706.174927,196.466324 
	C716.636230,201.085892 723.861206,208.002625 724.420105,220.344711 
	C725.027649,233.760071 718.861816,242.971344 707.398560,248.997498 
	C699.736206,253.025543 691.295959,254.340225 682.774109,254.699387 
	C666.513794,255.384705 650.963928,252.713287 636.663574,244.362549 
	C633.618164,242.584213 632.659668,240.870041 634.524841,237.617996 
	C636.509338,234.157959 638.258789,230.536606 639.797363,226.854675 
	C641.390808,223.041534 643.285522,222.304840 646.975220,224.613708 
	C657.253540,231.045502 668.540283,234.073257 680.717407,233.703094 
	C684.260498,233.595398 687.640503,232.847610 690.975769,231.763672 
	C694.855652,230.502777 697.310852,227.876190 697.418579,223.779358 
	C697.517273,220.026535 695.039978,217.729019 691.818726,216.210266 
	C686.179688,213.551651 680.031494,212.732101 674.041260,211.366150 
	C667.058105,209.773804 660.080261,208.179596 653.461121,205.366470 
	C643.648926,201.196320 636.594482,194.822479 635.664917,183.385925 
	C634.595093,170.223953 639.463867,159.738205 651.231201,153.988281 
	C673.032349,143.335434 695.042114,144.977859 716.713562,155.135345 
	C719.708191,156.538910 720.081604,158.492844 718.407715,161.491486 
z"/>
<path fill="#000000" opacity="1.000000" stroke="none" 
	d="
M464.485352,170.388153 
	C447.689911,167.722015 434.710632,173.041794 428.153534,185.537689 
	C422.056183,197.157318 422.618896,208.779541 430.187927,219.522034 
	C437.738251,230.237930 448.571381,233.602051 461.319794,232.092163 
	C468.974854,231.185532 475.320221,227.831192 480.546021,222.410477 
	C482.766907,220.106796 484.248810,220.405441 486.320343,222.357361 
	C490.076538,225.896667 493.884979,229.396912 497.872070,232.669174 
	C500.590302,234.900040 500.068268,236.563889 497.852356,238.729553 
	C489.487640,246.904572 479.583862,251.942505 468.052551,253.847717 
	C452.246796,256.459167 437.079651,254.563126 423.171204,246.440125 
	C404.144318,235.327744 394.482147,214.249863 398.011719,192.816040 
	C401.732422,170.221375 417.575287,153.537018 440.173584,148.875626 
	C457.726959,145.254868 474.654877,146.629974 490.152161,156.600754 
	C501.776337,164.079666 501.902496,166.112961 491.585388,174.901642 
	C484.043182,181.326462 484.024567,181.353027 476.106262,175.806046 
	C472.656281,173.389221 468.951324,171.565933 464.485352,170.388153 
z"/>
<path fill="#000000" opacity="1.000000" stroke="none" 
	d="
M258.992126,203.049255 
	C234.634872,217.249542 210.022629,230.146652 184.540649,241.384109 
	C180.504395,243.164062 178.395279,242.458710 175.967346,238.852356 
	C140.181351,185.697388 173.689392,116.386360 236.123856,107.680923 
	C271.548920,102.741501 305.036255,120.276482 321.872986,151.983368 
	C323.610901,155.256119 323.246796,157.197083 320.430481,159.617813 
	C301.411407,175.965439 280.452240,189.541916 258.992126,203.049255 
z"/>
</svg>