<?xml version="1.0" standalone="no"?>
<!DOCTYPE svg PUBLIC "-//W3C//DTD SVG 20010904//EN"
 "http://www.w3.org/TR/2001/REC-SVG-20010904/DTD/svg10.dtd">
<svg version="1.0" xmlns="http://www.w3.org/2000/svg"
 width="674.000000pt" height="674.000000pt" viewBox="0 0 674.000000 674.000000"
 preserveAspectRatio="xMidYMid meet">

<g transform="translate(0.000000,674.000000) scale(0.100000,-0.100000)"
fill="#000000" stroke="none">
<path d="M0 3370 l0 -3370 3370 0 3370 0 0 3370 0 3370 -3370 0 -3370 0 0
-3370z m3959 2345 c473 -76 921 -289 1241 -591 37 -35 77 -64 88 -64 11 0 73
10 139 21 151 28 366 30 466 6 173 -43 257 -131 257 -271 0 -297 -463 -811
-1242 -1380 l-38 -27 0 -78 c0 -275 -133 -585 -350 -814 -103 -109 -198 -181
-330 -251 -385 -203 -795 -205 -1202 -6 l-67 33 -153 -71 c-151 -70 -230 -105
-277 -123 -23 -9 -23 -10 -5 -30 28 -31 231 -163 319 -207 353 -176 761 -228
1145 -145 261 56 544 191 740 353 73 61 178 164 232 229 l37 44 73 -65 c40
-35 143 -123 228 -195 85 -71 161 -138 169 -147 13 -15 -1 -32 -130 -159 -250
-248 -491 -410 -794 -536 -629 -262 -1370 -238 -1980 63 -244 121 -426 251
-636 453 l-105 102 -155 -50 c-374 -122 -689 -180 -974 -181 -192 0 -285 15
-368 59 -278 152 -82 579 513 1113 110 100 258 225 347 294 l62 48 -6 181 c-6
211 5 336 48 549 46 225 120 429 221 612 386 697 1026 1137 1804 1240 147 20
538 15 683 -9z"/>
<path d="M3421 5119 c-289 -31 -565 -128 -801 -283 -196 -129 -331 -261 -474
-460 -291 -407 -383 -925 -250 -1416 38 -140 129 -341 210 -466 15 -22 15 -23
-78 -52 -196 -63 -450 -122 -521 -122 -34 0 -35 1 -92 122 -68 144 -128 308
-145 396 -7 34 -17 65 -22 68 -4 3 -42 -30 -84 -73 -344 -355 -399 -612 -146
-690 86 -27 356 -24 517 6 800 147 1883 634 2785 1253 573 394 958 767 1046
1016 57 161 9 262 -145 310 -79 24 -265 21 -390 -7 -51 -11 -99 -18 -105 -14
-6 4 -38 28 -71 53 -258 200 -546 318 -865 355 -136 16 -239 17 -369 4z m408
-453 c269 -59 471 -167 662 -356 106 -104 167 -187 227 -307 l32 -61 -58 -49
c-347 -297 -1011 -717 -1592 -1008 -193 -97 -497 -235 -531 -242 -23 -4 -31 2
-63 52 -103 155 -172 323 -202 495 -25 144 -15 393 21 515 72 248 161 408 319
573 218 228 480 360 811 406 63 9 303 -3 374 -18z"/>
</g>
</svg>
