<svg version="1.1" id="Layer_1" xmlns="http://www.w3.org/2000/svg" xmlns:xlink="http://www.w3.org/1999/xlink" x="0px" y="0px"
	 width="100%" viewBox="0 0 1024 368" enable-background="new 0 0 1024 368" xml:space="preserve">
<path fill="#000000" opacity="1.000000" stroke="none" 
	d="
M670.000000,369.000000 
	C446.666656,369.000000 223.833328,369.000000 1.000000,369.000000 
	C1.000000,246.333328 1.000000,123.666664 1.000000,1.000000 
	C342.333344,1.000000 683.666687,1.000000 1025.000000,1.000000 
	C1025.000000,123.666664 1025.000000,246.333328 1025.000000,369.000000 
	C906.833313,369.000000 788.666687,369.000000 670.000000,369.000000 
M65.859306,226.375046 
	C59.584946,232.587936 53.061302,238.572006 47.097382,245.069824 
	C39.084190,253.800369 31.717766,263.073517 27.318462,274.296204 
	C22.290485,287.122620 26.510668,296.537781 38.896702,299.487457 
	C45.703857,301.108521 52.646729,301.744202 59.711464,301.323578 
	C81.984909,299.997559 103.528412,295.202332 124.493797,287.779419 
	C128.977951,286.191772 132.465210,286.154327 135.438477,290.198853 
	C136.118927,291.124481 137.104675,291.824829 137.945114,292.633820 
	C177.080429,330.304626 223.677505,344.403992 276.985809,335.544922 
	C311.888092,329.744659 340.865936,312.474152 365.031769,286.820129 
	C368.316284,283.333313 368.255249,281.023743 364.389252,277.998657 
	C357.176208,272.354584 350.199890,266.390411 343.354858,260.301086 
	C339.884674,257.213959 337.575989,257.177979 334.326599,260.852509 
	C322.323456,274.426178 307.886322,284.708771 290.834045,291.047516 
	C251.109634,305.814026 213.999207,300.677582 179.544556,276.105469 
	C177.887436,274.923645 175.648621,274.049438 175.497604,271.034607 
	C181.180405,268.472961 187.276062,266.442627 192.598541,263.159027 
	C200.727127,258.144226 207.746399,258.530334 216.601913,262.517822 
	C246.583176,276.017853 282.557343,269.125854 305.680054,246.812332 
	C321.827942,231.229599 331.319733,212.547043 332.237976,189.926910 
	C332.406128,185.784882 334.220917,183.387985 337.436829,181.037277 
	C353.185272,169.525726 368.521454,157.466171 382.504639,143.828110 
	C394.573212,132.057404 406.252411,119.881714 413.287750,104.201141 
	C419.699860,89.909584 414.197144,79.471458 398.914215,76.427658 
	C387.404541,74.135368 376.022614,75.400658 364.737854,77.812614 
	C360.749786,78.665016 357.900116,77.875702 354.838226,75.077789 
	C319.859100,43.114456 278.395721,29.806313 231.601761,34.640587 
	C190.447922,38.892181 155.897064,57.004246 129.132446,88.895699 
	C102.265923,120.908577 90.449440,157.897980 93.831413,199.607117 
	C94.061852,202.449142 92.835899,203.870178 90.955978,205.423645 
	C82.737511,212.214890 74.579277,219.079041 65.859306,226.375046 
M767.595032,217.500229 
	C767.595032,207.555954 767.595032,197.611679 767.595032,187.667404 
	C769.571594,188.729355 770.500366,189.874496 771.294861,191.106262 
	C779.869446,204.400131 788.438965,217.697418 796.975952,231.015488 
	C801.635132,238.283981 810.467407,238.172592 815.003967,230.768631 
	C823.267822,217.281616 831.527222,203.791718 839.864746,190.350311 
	C840.721924,188.968384 841.138245,186.729477 844.297668,187.240677 
	C844.297668,189.163895 844.296570,191.126083 844.297791,193.088287 
	C844.307556,208.577911 844.475464,224.069962 844.235474,239.555710 
	C844.159729,244.443344 845.919556,246.255722 850.641357,245.870773 
	C853.455078,245.641418 856.300964,245.816696 859.132324,245.792175 
	C866.580444,245.727646 866.794250,245.574234 866.801514,238.255127 
	C866.828003,211.606308 866.871521,184.957245 866.783020,158.308670 
	C866.736511,144.303650 868.845825,145.125046 853.293213,144.823349 
	C847.729370,144.715424 844.500366,146.719833 841.667603,151.388702 
	C830.959045,169.038239 819.895386,186.472488 808.929993,203.965607 
	C808.176025,205.168396 807.789612,206.811966 806.039673,207.111954 
	C804.299683,206.708771 803.813416,205.153183 803.033081,203.934555 
	C792.886658,188.089767 782.818054,172.194855 772.623108,156.381409 
	C764.987549,144.537888 764.918884,144.582199 750.812622,145.022659 
	C750.646179,145.027847 750.479065,145.037949 750.313110,145.029404 
	C746.156433,144.815399 744.152344,146.608475 744.325806,150.945374 
	C744.505371,155.434982 744.351257,159.937714 744.352539,164.434708 
	C744.359802,189.418030 744.451843,214.401825 744.307251,239.384262 
	C744.279541,244.175369 746.077576,246.093307 750.773071,245.813004 
	C754.092834,245.614838 757.454285,245.519058 760.759277,245.809235 
	C765.949402,246.264908 767.609314,243.588074 767.593323,238.986389 
	C767.569519,232.157745 767.592957,225.328934 767.595032,217.500229 
M935.264832,247.236404 
	C944.119873,248.281845 952.930603,247.880020 961.502136,245.483414 
	C980.572327,240.151260 993.864807,228.344116 998.941650,208.968643 
	C1004.008728,189.630463 999.734802,172.146423 984.812439,158.319016 
	C968.496643,143.200516 948.876404,140.763794 927.895203,145.193527 
	C897.587341,151.592346 879.450562,182.577652 889.460327,211.684387 
	C896.744873,232.866714 912.800110,243.674942 935.264832,247.236404 
M548.638794,244.820679 
	C560.713013,248.565216 572.930054,248.767273 585.070740,245.546326 
	C604.630737,240.357056 617.895325,228.076538 623.311707,208.519714 
	C628.538940,189.645737 623.606262,172.808319 609.729187,159.142395 
	C595.816101,145.441071 578.379395,141.629028 559.490601,143.769058 
	C545.661865,145.335815 533.451111,150.776138 524.031921,161.282822 
	C498.752625,189.480820 511.028076,232.218689 548.638794,244.820679 
M684.473511,161.713623 
	C690.484985,162.014816 696.344910,163.024338 702.106079,164.865860 
	C705.847229,166.061691 709.659973,170.050781 713.077209,168.321167 
	C716.541809,166.567551 716.591492,161.078842 718.736023,157.554291 
	C721.326721,153.296478 719.371155,151.373764 715.557495,149.642807 
	C702.758179,143.833344 689.309265,142.340546 675.522827,143.659470 
	C667.174622,144.458115 659.171021,146.789886 652.076355,151.542648 
	C642.942322,157.661545 638.959717,166.515961 639.506714,177.195190 
	C640.043213,187.670486 646.590515,194.040466 655.678223,198.183746 
	C660.083557,200.192291 664.663391,201.670303 669.382080,202.788101 
	C677.472046,204.704483 685.711365,206.012772 693.608215,208.726105 
	C698.212952,210.308273 701.780029,213.060074 701.921204,218.201309 
	C702.068604,223.567551 698.181335,226.008667 693.609070,227.477478 
	C692.349792,227.882019 691.041626,228.162659 689.736938,228.392883 
	C677.657776,230.524475 666.243530,227.942307 655.138855,223.385818 
	C645.110352,219.270889 645.126587,219.231522 640.005493,228.967316 
	C636.855469,234.955841 637.066833,235.939011 643.066101,239.010803 
	C658.368286,246.846069 674.682129,248.939362 691.600586,247.150482 
	C700.015198,246.260788 707.700439,243.451859 714.783325,238.641693 
	C728.655518,229.220657 731.307251,204.370285 713.446838,194.510712 
	C709.334534,192.240601 705.065735,190.435699 700.517883,189.309082 
	C690.670776,186.869690 680.764893,184.649017 670.983459,181.972229 
	C667.020325,180.887680 663.701721,178.543716 663.634949,173.638535 
	C663.565735,168.552200 666.454285,165.611771 670.813416,163.904129 
	C674.878540,162.311600 679.170288,161.702271 684.473511,161.713623 
M409.933380,167.418854 
	C402.911926,179.463760 399.573242,192.102066 402.832214,206.118240 
	C413.046692,250.048477 466.404175,257.107758 492.872314,237.408310 
	C502.339264,230.362381 502.337280,230.076462 493.541138,222.352158 
	C486.631927,216.284866 486.631958,216.284851 479.164612,221.867157 
	C467.791687,230.369141 449.026001,230.050690 438.041199,221.169296 
	C426.271820,211.653625 422.453583,194.638855 429.006927,180.911194 
	C437.263123,163.616562 458.502441,157.651978 476.538269,167.219391 
	C480.193817,169.158539 482.700745,174.865845 487.365753,172.841263 
	C491.278107,171.143372 494.076721,166.997147 497.575043,164.192657 
	C500.751495,161.646194 500.585510,159.527374 497.638275,156.966644 
	C490.713287,150.949631 482.963440,146.552383 473.884979,144.906433 
	C448.631317,140.327805 426.514771,145.016693 409.933380,167.418854 
z"/>
<path fill="#000000" opacity="1.000000" stroke="none" 
	d="
M73.926758,242.059998 
	C79.621750,232.320847 86.912132,224.487015 94.906555,217.631134 
	C97.159180,218.175323 97.083664,219.621231 97.360115,220.901825 
	C99.731125,231.884964 104.130180,242.104904 109.041611,252.145859 
	C110.305099,254.728943 112.065804,256.112976 114.938995,255.618774 
	C127.066383,253.532898 139.042114,250.868576 150.361252,246.357422 
	C150.994400,244.119934 149.643921,242.872879 148.832596,241.506058 
	C116.595573,187.197723 136.500015,118.212379 190.824860,88.205658 
	C234.685425,63.978966 278.008667,67.055740 318.968170,96.436417 
	C322.502289,98.971489 325.603455,99.951683 329.978394,99.017120 
	C338.465637,97.204086 347.145935,96.540054 355.716095,98.698997 
	C365.899078,101.264236 369.753387,108.479019 366.350830,118.456108 
	C362.928406,128.491562 356.200867,136.360626 349.059296,143.860474 
	C332.424255,161.330063 313.247498,175.709702 293.260010,189.036041 
	C247.575623,219.495361 199.101044,244.305527 146.501999,260.551331 
	C128.511734,266.107819 110.264748,270.639709 91.196030,270.359314 
	C87.161430,270.299957 83.214584,269.756378 79.440033,268.390747 
	C70.962929,265.323792 67.830719,259.295746 70.343475,250.677612 
	C71.175140,247.825256 72.598930,245.145523 73.926758,242.059998 
M322.879120,150.802719 
	C323.534698,148.609589 322.208466,146.962967 321.302734,145.220703 
	C306.937927,117.589386 272.135040,98.992813 238.680771,103.115997 
	C180.066223,110.340141 143.379028,176.234818 177.189896,229.651855 
	C180.582489,235.011703 181.287567,235.246048 187.250473,232.665909 
	C217.273468,219.674942 246.015488,204.276291 273.657410,186.796494 
	C290.706177,176.015442 307.323212,164.646606 322.879120,150.802719 
z"/>
<path fill="#000000" opacity="1.000000" stroke="none" 
	d="
M919.262817,217.697632 
	C903.736633,198.026657 911.192688,170.821365 933.595947,164.249008 
	C946.865906,160.356049 961.849487,164.810028 969.730469,174.990204 
	C978.095703,185.795807 978.832397,202.140411 971.488586,213.996521 
	C961.085754,230.791275 934.754883,232.800247 919.262817,217.697632 
z"/>
<path fill="#000000" opacity="1.000000" stroke="none" 
	d="
M535.916626,203.678162 
	C532.858459,187.395767 538.922974,173.520050 551.774658,166.748154 
	C565.113403,159.719589 581.478943,162.165756 591.858887,172.739471 
	C601.421997,182.480988 603.400757,198.558350 596.661133,211.756500 
	C590.843933,223.148392 577.215820,229.617661 563.810974,227.821289 
	C549.309937,225.878006 540.307373,217.819885 535.916626,203.678162 
z"/>
</svg>